<?xml version="1.0" encoding="iso-8859-1"?>
<!-- Uploaded to: SVG Repo, www.svgrepo.com, Generator: SVG Repo Mixer Tools -->
<svg version="1.1" id="Layer_1" xmlns="http://www.w3.org/2000/svg" xmlns:xlink="http://www.w3.org/1999/xlink" 
	 viewBox="0 0 508.4 508.4" xml:space="preserve">
<path style="fill:#AEB1B4;" d="M6.4,52.4v282.4h312v-20H26.8h-0.4V314V52v-2c0-1.2-0.8-3.2,0.4-3.2h452c1.2,0,3.6,2,3.6,3.2v264
	c0,1.2-2.8,0.8-3.6,0.8h-2h-10v20h34c0.8,0,1.2,0.8,1.6,1.6v-284c0-16.4-13.2-29.6-30.4-29.6H36.4C20,22.8,6.4,36,6.4,52.4z"/>
<g>
	<path style="fill:#E8E3E3;" d="M500.8,338.8h-34v44h5.2c16.4,0,30.4-13.6,30.4-30.4V338C502,338.8,501.2,338.8,500.8,338.8z"/>
	<path style="fill:#E8E3E3;" d="M6.4,338.8v13.6c0,17.2,14,30.4,30.4,30.4h281.6v-44H6.4z M252.4,369.6c-5.6,0-10-4.4-10-10
		s4.4-10,10-10s10,4.4,10,10S257.6,369.6,252.4,369.6z"/>
</g>
<path style="fill:#CDEEF9;" d="M346.8,237.6h96.4c14.4,0,26.8,13.6,26.8,28l0.4,49.2h7.6v-268H30v268h288V264
	C318.4,250,332,237.6,346.8,237.6z"/>
<path style="fill:#CC9999;" d="M24.8,314v2h2C25.6,316,24.8,314.8,24.8,314z"/>
<polygon style="fill:#AEB1B4;" points="182.4,386.8 182.4,430.8 150.4,430.8 150.4,442.8 281.6,442.8 318.4,442.8 318.4,386.8 "/>
<circle style="fill:#E8E3E3;" cx="252.4" cy="359.6" r="6"/>
<g>
	<path style="fill:#CC9999;" d="M462.8,386.8v-1.6c0,0.4,0,0.4,0,0.8S462.8,386.4,462.8,386.8z"/>
	<path style="fill:#CC9999;" d="M462.8,338c0,0.4,0,0.4,0,0.8v-1.2C462.8,337.6,462.8,337.6,462.8,338z"/>
	<path style="fill:#CC9999;" d="M462.8,314.4v-0.8v0.4V314.4z"/>
</g>
<path style="fill:#F4EFEF;" d="M462.8,264c0-12-10.4-22.4-22.8-22.4h-95.2c-12.4,0-22.8,10.4-22.8,22.4v199.6
	c0,12,10,22.4,22.4,22.4h96c12.4,0,22-10,22-22.4L462.8,264z M392.8,478c-5.6,0-10-4.4-10-10s4.4-10,10-10s10,4.4,10,10
	C402.8,473.6,398.4,478,392.8,478z M450.4,450c0,1.2-2.8,0.8-3.6,0.8h-2h-110c-1.2,0-0.4,0-0.4-0.8V288v-2c0-1.2-0.8-3.2,0.4-3.2
	h112c1.2,0,3.6,2,3.6,3.2L450.4,450L450.4,450z"/>
<rect x="334.4" y="282.8" style="fill:#CDEEF9;" width="108" height="168"/>
<circle style="fill:#F4EFEF;" cx="392.8" cy="468" r="6"/>
<path d="M472,388.8h-1.6c-2.4,0-4-1.6-4-4s1.6-4,4-4h1.6c15.2,0,28.4-13.2,28.4-28.8V52.4c0-15.2-12.8-27.6-28.4-27.6H36.4
	C20.8,24.8,8,37.2,8,52.8V352c0,15.6,12.8,28.8,28.4,28.8H318c2.4,0,4,1.6,4,4s-1.6,4-4,4H36.4C16.8,388.8,0,372,0,352V52.8
	c0-20,16.4-36,36.4-36H472c20,0,36.4,16,36.4,35.6V352C508.4,372.4,492,388.8,472,388.8z"/>
<path d="M502.4,340.8h-36c-2.4,0-4-1.6-4-4s1.6-4,4-4h36c2.4,0,4,1.6,4,4S504.8,340.8,502.4,340.8z"/>
<path d="M318.4,340.8H6.4c-2.4,0-4-1.6-4-4s1.6-4,4-4h312c2.4,0,4,1.6,4,4S320.8,340.8,318.4,340.8z"/>
<path d="M318.4,316.8h-290c-2.4,0-4-1.6-4-4v-268c0-2.4,1.6-4,4-4h386c2.4,0,4,1.6,4,4s-1.6,4-4,4h-382v260h286c2.4,0,4,1.6,4,4
	S320.8,316.8,318.4,316.8z"/>
<path d="M480.4,316.8h-14c-2.4,0-4-1.6-4-4s1.6-4,4-4h10v-260h-18c-2.4,0-4-1.6-4-4s1.6-4,4-4h22c2.4,0,4,1.6,4,4v268
	C484.4,315.2,482.8,316.8,480.4,316.8z"/>
<path d="M180.4,430.8c-2.4,0-4-1.6-4-4v-40c0-2.4,1.6-4,4-4s4,1.6,4,4v40C184.4,429.2,182.8,430.8,180.4,430.8z"/>
<path d="M318.4,448.8h-170c-2.4,0-4-1.6-4-4v-16c0-2.4,1.6-4,4-4h146c2.4,0,4,1.6,4,4s-1.6,4-4,4h-142v8h166c2.4,0,4,1.6,4,4
	S320.8,448.8,318.4,448.8z"/>
<path d="M228.4,112c-1.2,0-2-0.4-2.8-1.2l-62.4-62.4c-1.6-1.6-1.6-4,0-5.6s4-1.6,5.6,0l62.4,62.4c1.6,1.6,1.6,4,0,5.6
	C230.4,111.6,229.6,112,228.4,112z"/>
<path d="M288.4,172c-1.2,0-2-0.4-2.8-1.2l-40-40c-1.6-1.6-1.6-4,0-5.6s4-1.6,5.6,0l40,40c1.6,1.6,1.6,4,0,5.6
	C290.4,171.6,289.6,172,288.4,172z"/>
<path d="M324.8,252.4c-1.2,0-2-0.4-2.8-1.2L205.6,134.8c-1.6-1.6-1.6-4,0-5.6s4-1.6,5.6,0l116.4,116.4c1.6,1.6,1.6,4,0,5.6
	C326.8,252,325.6,252.4,324.8,252.4z"/>
<path d="M252.4,371.6c-6.8,0-12-5.2-12-12s5.2-12,12-12s12,5.2,12,12S258.8,371.6,252.4,371.6z M252.4,355.6c-2.4,0-4,1.6-4,4
	s1.6,4,4,4s4-1.6,4-4S254.4,355.6,252.4,355.6z"/>
<path d="M345.2,491.6c-15.6,0-28.8-12.8-28.8-28.4V263.6c0-15.6,12.8-28.4,28.8-28.4h95.6c15.6,0,28.4,12.8,28.4,28.4v199.2
	c0,15.6-12.8,28.4-28.4,28.4L345.2,491.6z M440.4,243.6h-95.6c-11.2,0-20.8,9.2-20.8,20.4v199.6c0,10.8,9.6,20.4,20.8,20.4h95.6
	c11.2,0,20.4-9.2,20.4-20.4l0,0V264.4C460.8,253.2,451.6,243.6,440.4,243.6z"/>
<path d="M448.4,452.8h-112c-2.4,0-4-1.6-4-4v-168c0-2.4,1.6-4,4-4h90c2.4,0,4,1.6,4,4s-1.6,4-4,4h-86v160h104v-160h-2
	c-2.4,0-4-1.6-4-4s1.6-4,4-4h6c2.4,0,4,1.6,4,4v168C452.4,451.2,450.8,452.8,448.4,452.8z"/>
<path d="M406.4,264.8h-24c-2.4,0-4-1.6-4-4s1.6-4,4-4h24c2.4,0,4,1.6,4,4S408.8,264.8,406.4,264.8z"/>
<path d="M364.8,264c-1.2,0-2-0.4-2.8-1.2c-0.8-0.8-1.2-1.6-1.2-2.8c0-1.2,0.4-2,1.2-2.8c1.6-1.6,4-1.6,5.6,0
	c0.8,0.8,1.2,1.6,1.2,2.8c0,1.2-0.4,2-1.2,2.8S366,264,364.8,264z"/>
<path d="M384.4,330.8c-1.2,0-2-0.4-2.8-1.2l-44.4-44.4c-1.6-1.6-1.6-4,0-5.6s4-1.6,5.6,0l44.4,44.4c1.6,1.6,1.6,4,0,5.6
	C386.4,330.4,385.2,330.8,384.4,330.8z"/>
<path d="M414,360.4c-1.2,0-2-0.4-2.8-1.2l-16-16c-1.6-1.6-1.6-4,0-5.6s4-1.6,5.6,0l16,16c1.6,1.6,1.6,4,0,5.6
	C416,360,414.8,360.4,414,360.4z"/>
<path d="M426.4,405.2c-1.2,0-2-0.4-2.8-1.2l-57.2-57.2c-1.6-1.6-1.6-4,0-5.6s4-1.6,5.6,0l57.2,57.2c1.6,1.6,1.6,4,0,5.6
	C428.4,404.8,427.6,405.2,426.4,405.2z"/>
<path d="M446,424.8c-1.2,0-2-0.4-2.8-1.2l-7.6-7.6c-1.6-1.6-1.6-4,0-5.6s4-1.6,5.6,0l7.6,7.6c1.6,1.6,1.6,4,0,5.6
	C448.4,424.4,447.2,424.8,446,424.8z"/>
<path d="M392.8,480c-6.8,0-12-5.2-12-12s5.2-12,12-12s12,5.2,12,12S399.6,480,392.8,480z M392.8,464c-2.4,0-4,1.6-4,4s1.6,4,4,4
	s4-1.6,4-4S395.2,464,392.8,464z"/>
</svg>